<svg width="50" height="50" xmlns="http://www.w3.org/2000/svg">

 <g>
  <title>Layer 1</title>
  <path fill="#ffffff" stroke="null" id="svg_1" d="m0.6,27.09231q0,4.6125 1.93802,8.81106t5.21042,7.24399t7.78385,4.84904t9.46771,1.80361t9.46771,-1.80361t7.78385,-4.84904t5.21042,-7.24399t1.93802,-8.81106q0,-5.38125 -2.55755,-10.14159t-7.19609,-7.98317q-1.36615,-0.94615 -3.03411,-0.73918t-2.65286,1.47837q-1.01667,1.24183 -0.77839,2.79411t1.57266,2.49844q3.11354,2.18798 4.81328,5.35168t1.69974,6.74135q0,3.075 -1.28672,5.86911t-3.47891,4.83425t-5.19453,3.23762t-6.30651,1.19748t-6.30651,-1.19748t-5.19453,-3.23762t-3.47891,-4.83425t-1.28672,-5.86911q0,-3.57764 1.69974,-6.74135t4.81328,-5.35168q1.33437,-0.94615 1.57266,-2.49844t-0.77839,-2.79411q-0.9849,-1.27139 -2.66875,-1.47837t-3.01823,0.73918q-4.63854,3.22284 -7.19609,7.98317t-2.55755,10.14159zm20.33333,-22.70769l0,18.92308q0,1.5375 1.20729,2.66106t2.85937,1.12356t2.85937,-1.12356t1.20729,-2.66106l0,-18.92308q0,-1.5375 -1.20729,-2.66106t-2.85937,-1.12356t-2.85937,1.12356t-1.20729,2.66106z"/>
 </g>
</svg>